<svg aria-hidden="true" style="position: absolute; width: 0; height: 0; overflow: hidden;" version="1.1" xmlns="http://www.w3.org/2000/svg" xmlns:xlink="http://www.w3.org/1999/xlink">
<defs>
<symbol id="icon-checked" viewBox="0 0 32 32">
<path fill="#4B0082" style="fill: var(--color1, #4B0082)" d="M5.083 2.4h22.020c1.583 0 2.866 1.283 2.866 2.866v21.401c0 1.583-1.283 2.866-2.866 2.866h-22.020c-1.583 0-2.866-1.283-2.866-2.866v-21.401c0-1.583 1.283-2.866 2.866-2.866z"></path>
<path fill="#fff" style="fill: var(--color2, #fff)" d="M21.72 10.367l-7.518 7.514-3.378-3.358-1.579 1.586c1.655 1.644 3.307 3.291 4.964 4.933l9.092-9.092z"></path>
</symbol>
<symbol id="icon-play" viewBox="0 0 32 32">
<path d="M8.749 29.253c-1.841 0-3.333-1.492-3.333-3.333v0-19.84c0-1.841 1.493-3.333 3.333-3.333 0.706 0 1.36 0.219 1.899 0.593l-0.011-0.007 14.503 9.919c0.877 0.609 1.445 1.612 1.445 2.747s-0.567 2.137-1.434 2.739l-0.011 0.007-14.504 9.921c-0.527 0.367-1.181 0.586-1.887 0.587h-0zM8.749 4.075c-0.342 0.001-0.663 0.088-0.944 0.241l0.010-0.005c-0.639 0.334-1.067 0.992-1.067 1.75 0 0.007 0 0.013 0 0.020v-0.001 19.839c0.001 1.104 0.896 1.999 2 1.999 0.424 0 0.817-0.132 1.14-0.356l-0.007 0.004 14.503-9.92c0.526-0.366 0.866-0.967 0.866-1.647s-0.34-1.282-0.859-1.643l-0.007-0.004-14.501-9.916c-0.316-0.224-0.708-0.358-1.131-0.36h-0.001z"></path>
</symbol>
<symbol id="icon-unchecked" viewBox="0 0 32 32">
<path d="M25 28h-18c-1.657 0-3-1.343-3-3v0-18c0-1.657 1.343-3 3-3v0h18c1.657 0 3 1.343 3 3v0 18c0 1.657-1.343 3-3 3v0zM7 6c-0.552 0-1 0.448-1 1v0 18c0 0.552 0.448 1 1 1v0h18c0.552 0 1-0.448 1-1v0-18c0-0.552-0.448-1-1-1v0z"></path>
</symbol>
</defs>
</svg>
